<mxfile host="app.diagrams.net" modified="2021-07-15T16:48:26.420Z" agent="5.0 (Windows NT 10.0; Win64; x64) AppleWebKit/537.36 (KHTML, like Gecko) Chrome/91.0.4472.124 Safari/537.36" etag="1c0Rzwf1-UfsqM-7CLvh" version="14.8.6" type="github">
  <diagram id="YS19dX1pj8gQ7npMbOew" name="Page-1">
    <mxGraphModel dx="920" dy="596" grid="1" gridSize="10" guides="1" tooltips="1" connect="1" arrows="1" fold="1" page="1" pageScale="1" pageWidth="850" pageHeight="1100" math="0" shadow="0">
      <root>
        <mxCell id="0" />
        <mxCell id="1" parent="0" />
        <mxCell id="_d9M04DH2eVFDw5MNcZJ-22" value="" style="outlineConnect=0;html=1;whiteSpace=wrap;fontSize=12;fontStyle=0;verticalAlign=top;align=center;dashed=1;spacingTop=3;strokeWidth=4;fillColor=none;strokeColor=#FF0000;" vertex="1" parent="1">
          <mxGeometry x="380" y="284" width="370" height="240" as="geometry" />
        </mxCell>
        <mxCell id="_d9M04DH2eVFDw5MNcZJ-17" value="" style="outlineConnect=0;html=1;whiteSpace=wrap;fontSize=12;fontStyle=0;verticalAlign=top;align=center;dashed=1;spacingTop=3;strokeWidth=4;fillColor=none;strokeColor=#FF0000;" vertex="1" parent="1">
          <mxGeometry x="477.5" y="105" width="120" height="75" as="geometry" />
        </mxCell>
        <mxCell id="9x1H_0t3VZo4HXwmnzUf-2" value="SERVER" style="shape=umlFrame;whiteSpace=wrap;html=1;width=90;height=40;" parent="1" vertex="1">
          <mxGeometry x="140" y="440" width="690" height="425" as="geometry" />
        </mxCell>
        <mxCell id="9x1H_0t3VZo4HXwmnzUf-1" value="" style="shape=cylinder3;whiteSpace=wrap;html=1;boundedLbl=1;backgroundOutline=1;size=15;" parent="1" vertex="1">
          <mxGeometry x="400" y="730" width="100" height="100" as="geometry" />
        </mxCell>
        <mxCell id="9x1H_0t3VZo4HXwmnzUf-36" style="edgeStyle=orthogonalEdgeStyle;rounded=0;orthogonalLoop=1;jettySize=auto;html=1;exitX=0.5;exitY=1;exitDx=0;exitDy=0;entryX=0.75;entryY=0;entryDx=0;entryDy=0;startArrow=none;" parent="1" source="9x1H_0t3VZo4HXwmnzUf-3" target="9x1H_0t3VZo4HXwmnzUf-7" edge="1">
          <mxGeometry relative="1" as="geometry">
            <Array as="points">
              <mxPoint x="487" y="370" />
            </Array>
          </mxGeometry>
        </mxCell>
        <mxCell id="9x1H_0t3VZo4HXwmnzUf-32" style="edgeStyle=orthogonalEdgeStyle;rounded=0;orthogonalLoop=1;jettySize=auto;html=1;exitX=0;exitY=0.5;exitDx=0;exitDy=0;entryX=0.5;entryY=0;entryDx=0;entryDy=0;" parent="1" source="9x1H_0t3VZo4HXwmnzUf-6" target="9x1H_0t3VZo4HXwmnzUf-13" edge="1">
          <mxGeometry relative="1" as="geometry" />
        </mxCell>
        <mxCell id="9x1H_0t3VZo4HXwmnzUf-6" value="&lt;font style=&quot;font-size: 14px&quot;&gt;Team&lt;/font&gt;" style="html=1;" parent="1" vertex="1">
          <mxGeometry x="605" y="40" width="110" height="50" as="geometry" />
        </mxCell>
        <mxCell id="9x1H_0t3VZo4HXwmnzUf-7" value="&lt;font style=&quot;font-size: 14px&quot;&gt;Onion Routing&lt;/font&gt;" style="html=1;" parent="1" vertex="1">
          <mxGeometry x="390" y="410" width="130" height="60" as="geometry" />
        </mxCell>
        <mxCell id="9x1H_0t3VZo4HXwmnzUf-8" value="" style="shape=cylinder3;whiteSpace=wrap;html=1;boundedLbl=1;backgroundOutline=1;size=15;" parent="1" vertex="1">
          <mxGeometry x="680" y="730" width="100" height="100" as="geometry" />
        </mxCell>
        <mxCell id="9x1H_0t3VZo4HXwmnzUf-9" value="&lt;font style=&quot;font-size: 14px&quot;&gt;Admin&lt;/font&gt;" style="html=1;" parent="1" vertex="1">
          <mxGeometry x="415" y="780" width="70" height="30" as="geometry" />
        </mxCell>
        <mxCell id="9x1H_0t3VZo4HXwmnzUf-10" value="" style="shape=cylinder3;whiteSpace=wrap;html=1;boundedLbl=1;backgroundOutline=1;size=15;" parent="1" vertex="1">
          <mxGeometry x="540" y="730" width="100" height="100" as="geometry" />
        </mxCell>
        <mxCell id="9x1H_0t3VZo4HXwmnzUf-11" value="&lt;font style=&quot;font-size: 14px&quot;&gt;Data&lt;/font&gt;" style="html=1;" parent="1" vertex="1">
          <mxGeometry x="555" y="780" width="70" height="30" as="geometry" />
        </mxCell>
        <mxCell id="9x1H_0t3VZo4HXwmnzUf-12" value="&lt;font style=&quot;font-size: 14px&quot;&gt;Team&lt;/font&gt;" style="html=1;" parent="1" vertex="1">
          <mxGeometry x="695" y="780" width="70" height="30" as="geometry" />
        </mxCell>
        <mxCell id="_d9M04DH2eVFDw5MNcZJ-20" style="edgeStyle=orthogonalEdgeStyle;rounded=0;orthogonalLoop=1;jettySize=auto;html=1;exitX=0.5;exitY=1;exitDx=0;exitDy=0;" edge="1" parent="1" source="9x1H_0t3VZo4HXwmnzUf-13" target="_d9M04DH2eVFDw5MNcZJ-2">
          <mxGeometry relative="1" as="geometry" />
        </mxCell>
        <mxCell id="9x1H_0t3VZo4HXwmnzUf-13" value="&lt;font style=&quot;font-size: 14px&quot;&gt;Personal&lt;br&gt;Data Store&lt;/font&gt;" style="html=1;" parent="1" vertex="1">
          <mxGeometry x="495" y="120" width="90" height="50" as="geometry" />
        </mxCell>
        <mxCell id="9x1H_0t3VZo4HXwmnzUf-15" value="&lt;font style=&quot;font-size: 14px&quot;&gt;Handle&lt;/font&gt;" style="text;html=1;strokeColor=none;fillColor=none;align=center;verticalAlign=middle;whiteSpace=wrap;rounded=0;" parent="1" vertex="1">
          <mxGeometry x="548" y="76" width="40" height="20" as="geometry" />
        </mxCell>
        <mxCell id="9x1H_0t3VZo4HXwmnzUf-16" value="&lt;font style=&quot;font-size: 14px&quot;&gt;Send data&lt;/font&gt;" style="text;html=1;strokeColor=none;fillColor=none;align=center;verticalAlign=middle;whiteSpace=wrap;rounded=0;" parent="1" vertex="1">
          <mxGeometry x="485" y="380" width="80" height="20" as="geometry" />
        </mxCell>
        <mxCell id="9x1H_0t3VZo4HXwmnzUf-17" value="&lt;font style=&quot;font-size: 14px&quot;&gt;Anonymous&lt;br&gt;reputation-based&lt;br&gt;Blacklist&lt;/font&gt;" style="html=1;" parent="1" vertex="1">
          <mxGeometry x="590" y="445" width="140" height="70" as="geometry" />
        </mxCell>
        <mxCell id="9x1H_0t3VZo4HXwmnzUf-30" style="edgeStyle=orthogonalEdgeStyle;rounded=0;orthogonalLoop=1;jettySize=auto;html=1;exitX=1;exitY=0.5;exitDx=0;exitDy=0;entryX=0.5;entryY=0;entryDx=0;entryDy=0;" parent="1" source="9x1H_0t3VZo4HXwmnzUf-20" target="9x1H_0t3VZo4HXwmnzUf-13" edge="1">
          <mxGeometry relative="1" as="geometry" />
        </mxCell>
        <mxCell id="9x1H_0t3VZo4HXwmnzUf-20" value="&lt;font style=&quot;font-size: 14px&quot;&gt;User&lt;/font&gt;" style="html=1;" parent="1" vertex="1">
          <mxGeometry x="375" y="40" width="110" height="50" as="geometry" />
        </mxCell>
        <mxCell id="_d9M04DH2eVFDw5MNcZJ-26" style="edgeStyle=orthogonalEdgeStyle;rounded=0;orthogonalLoop=1;jettySize=auto;html=1;exitX=0.5;exitY=1;exitDx=0;exitDy=0;entryX=0.5;entryY=0;entryDx=0;entryDy=0;" edge="1" parent="1" source="9x1H_0t3VZo4HXwmnzUf-21" target="_d9M04DH2eVFDw5MNcZJ-12">
          <mxGeometry relative="1" as="geometry" />
        </mxCell>
        <mxCell id="_d9M04DH2eVFDw5MNcZJ-36" style="edgeStyle=orthogonalEdgeStyle;rounded=0;orthogonalLoop=1;jettySize=auto;html=1;exitX=0;exitY=0.5;exitDx=0;exitDy=0;" edge="1" parent="1" source="9x1H_0t3VZo4HXwmnzUf-21" target="_d9M04DH2eVFDw5MNcZJ-35">
          <mxGeometry relative="1" as="geometry" />
        </mxCell>
        <mxCell id="9x1H_0t3VZo4HXwmnzUf-21" value="&lt;font style=&quot;font-size: 14px&quot;&gt;&lt;b&gt;GUI&lt;/b&gt;&lt;/font&gt;" style="rounded=0;whiteSpace=wrap;html=1;" parent="1" vertex="1">
          <mxGeometry x="415" y="550" width="80" height="50" as="geometry" />
        </mxCell>
        <mxCell id="9x1H_0t3VZo4HXwmnzUf-23" value="&lt;font style=&quot;font-size: 14px&quot;&gt;Use&lt;/font&gt;" style="text;html=1;strokeColor=none;fillColor=none;align=center;verticalAlign=middle;whiteSpace=wrap;rounded=0;" parent="1" vertex="1">
          <mxGeometry x="540" y="181" width="40" height="20" as="geometry" />
        </mxCell>
        <mxCell id="9x1H_0t3VZo4HXwmnzUf-37" style="edgeStyle=orthogonalEdgeStyle;rounded=0;orthogonalLoop=1;jettySize=auto;html=1;exitX=0.5;exitY=1;exitDx=0;exitDy=0;entryX=0.75;entryY=0;entryDx=0;entryDy=0;" parent="1" source="9x1H_0t3VZo4HXwmnzUf-24" target="9x1H_0t3VZo4HXwmnzUf-7" edge="1">
          <mxGeometry relative="1" as="geometry">
            <Array as="points">
              <mxPoint x="325" y="370" />
              <mxPoint x="488" y="370" />
            </Array>
          </mxGeometry>
        </mxCell>
        <mxCell id="9x1H_0t3VZo4HXwmnzUf-24" value="&lt;font style=&quot;font-size: 14px&quot;&gt;Admin&lt;/font&gt;" style="html=1;" parent="1" vertex="1">
          <mxGeometry x="270" y="180" width="110" height="50" as="geometry" />
        </mxCell>
        <mxCell id="9x1H_0t3VZo4HXwmnzUf-35" value="" style="endArrow=classic;html=1;exitX=0.25;exitY=0;exitDx=0;exitDy=0;" parent="1" source="9x1H_0t3VZo4HXwmnzUf-7" edge="1">
          <mxGeometry width="50" height="50" relative="1" as="geometry">
            <mxPoint x="395" y="370" as="sourcePoint" />
            <mxPoint x="423" y="370" as="targetPoint" />
          </mxGeometry>
        </mxCell>
        <mxCell id="9x1H_0t3VZo4HXwmnzUf-38" value="&lt;font style=&quot;font-size: 14px&quot;&gt;Receive data&lt;/font&gt;" style="text;html=1;strokeColor=none;fillColor=none;align=center;verticalAlign=middle;whiteSpace=wrap;rounded=0;" parent="1" vertex="1">
          <mxGeometry x="325" y="380" width="90" height="20" as="geometry" />
        </mxCell>
        <mxCell id="_d9M04DH2eVFDw5MNcZJ-24" style="edgeStyle=orthogonalEdgeStyle;rounded=0;orthogonalLoop=1;jettySize=auto;html=1;exitX=0.5;exitY=1;exitDx=0;exitDy=0;" edge="1" parent="1" source="_d9M04DH2eVFDw5MNcZJ-2" target="9x1H_0t3VZo4HXwmnzUf-3">
          <mxGeometry relative="1" as="geometry" />
        </mxCell>
        <mxCell id="_d9M04DH2eVFDw5MNcZJ-2" value="&lt;span style=&quot;font-size: 14px&quot;&gt;Authenticator&lt;/span&gt;" style="html=1;" vertex="1" parent="1">
          <mxGeometry x="482.5" y="214" width="115" height="50" as="geometry" />
        </mxCell>
        <mxCell id="_d9M04DH2eVFDw5MNcZJ-6" value="&lt;font style=&quot;font-size: 14px&quot;&gt;Interacts&lt;/font&gt;" style="text;html=1;strokeColor=none;fillColor=none;align=center;verticalAlign=middle;whiteSpace=wrap;rounded=0;" vertex="1" parent="1">
          <mxGeometry x="532.5" y="264" width="80" height="20" as="geometry" />
        </mxCell>
        <mxCell id="_d9M04DH2eVFDw5MNcZJ-14" value="&lt;font color=&quot;#ff0000&quot; size=&quot;1&quot;&gt;&lt;b style=&quot;font-size: 14px&quot;&gt;HIDE&lt;/b&gt;&lt;/font&gt;" style="text;html=1;strokeColor=none;fillColor=none;align=center;verticalAlign=middle;whiteSpace=wrap;rounded=0;dashed=1;" vertex="1" parent="1">
          <mxGeometry x="750" y="400" width="55" height="20" as="geometry" />
        </mxCell>
        <mxCell id="_d9M04DH2eVFDw5MNcZJ-16" value="&lt;font color=&quot;#ff0000&quot; size=&quot;1&quot;&gt;&lt;b style=&quot;font-size: 14px&quot;&gt;ABSTRACT&lt;/b&gt;&lt;/font&gt;" style="text;html=1;strokeColor=none;fillColor=none;align=center;verticalAlign=middle;whiteSpace=wrap;rounded=0;dashed=1;" vertex="1" parent="1">
          <mxGeometry x="540" y="680" width="95" height="20" as="geometry" />
        </mxCell>
        <mxCell id="_d9M04DH2eVFDw5MNcZJ-18" value="&lt;font color=&quot;#ff0000&quot; size=&quot;1&quot;&gt;&lt;b style=&quot;font-size: 14px&quot;&gt;SEPARATE&lt;/b&gt;&lt;/font&gt;" style="text;html=1;strokeColor=none;fillColor=none;align=center;verticalAlign=middle;whiteSpace=wrap;rounded=0;dashed=1;" vertex="1" parent="1">
          <mxGeometry x="610" y="135" width="70" height="20" as="geometry" />
        </mxCell>
        <mxCell id="9x1H_0t3VZo4HXwmnzUf-3" value="&lt;font style=&quot;font-size: 14px&quot;&gt;Encription with&lt;br&gt;user managed key&lt;/font&gt;" style="html=1;" parent="1" vertex="1">
          <mxGeometry x="467.5" y="300" width="145" height="50" as="geometry" />
        </mxCell>
        <mxCell id="_d9M04DH2eVFDw5MNcZJ-15" value="" style="outlineConnect=0;html=1;whiteSpace=wrap;fontSize=12;fontStyle=0;verticalAlign=top;align=center;dashed=1;spacingTop=3;strokeWidth=4;fillColor=none;strokeColor=#FF0000;" vertex="1" parent="1">
          <mxGeometry x="382.5" y="632.5" width="150" height="80" as="geometry" />
        </mxCell>
        <mxCell id="_d9M04DH2eVFDw5MNcZJ-12" value="&lt;span style=&quot;font-size: 14px&quot;&gt;Location&lt;br&gt;granularity&lt;/span&gt;" style="html=1;" vertex="1" parent="1">
          <mxGeometry x="406.25" y="645" width="97.5" height="55" as="geometry" />
        </mxCell>
        <mxCell id="_d9M04DH2eVFDw5MNcZJ-32" value="" style="endArrow=classic;startArrow=classic;html=1;entryX=0.5;entryY=1;entryDx=0;entryDy=0;exitX=0.5;exitY=0;exitDx=0;exitDy=0;" edge="1" parent="1" source="9x1H_0t3VZo4HXwmnzUf-21" target="9x1H_0t3VZo4HXwmnzUf-7">
          <mxGeometry width="50" height="50" relative="1" as="geometry">
            <mxPoint x="500" y="510" as="sourcePoint" />
            <mxPoint x="500" y="500" as="targetPoint" />
          </mxGeometry>
        </mxCell>
        <mxCell id="_d9M04DH2eVFDw5MNcZJ-33" value="" style="endArrow=classic;startArrow=classic;html=1;entryX=0.5;entryY=1;entryDx=0;entryDy=0;exitX=1;exitY=0.5;exitDx=0;exitDy=0;" edge="1" parent="1" source="9x1H_0t3VZo4HXwmnzUf-21" target="9x1H_0t3VZo4HXwmnzUf-17">
          <mxGeometry width="50" height="50" relative="1" as="geometry">
            <mxPoint x="620" y="630" as="sourcePoint" />
            <mxPoint x="670" y="580" as="targetPoint" />
            <Array as="points">
              <mxPoint x="660" y="575" />
            </Array>
          </mxGeometry>
        </mxCell>
        <mxCell id="_d9M04DH2eVFDw5MNcZJ-39" style="edgeStyle=orthogonalEdgeStyle;rounded=0;orthogonalLoop=1;jettySize=auto;html=1;exitX=0.5;exitY=0;exitDx=0;exitDy=0;entryX=0.5;entryY=0;entryDx=0;entryDy=0;" edge="1" parent="1" source="_d9M04DH2eVFDw5MNcZJ-35" target="9x1H_0t3VZo4HXwmnzUf-20">
          <mxGeometry relative="1" as="geometry">
            <Array as="points">
              <mxPoint x="248" y="20" />
              <mxPoint x="430" y="20" />
            </Array>
          </mxGeometry>
        </mxCell>
        <mxCell id="_d9M04DH2eVFDw5MNcZJ-35" value="&lt;span style=&quot;font-size: 14px&quot;&gt;Metadata&lt;br&gt;Manager&lt;br&gt;&lt;/span&gt;" style="html=1;" vertex="1" parent="1">
          <mxGeometry x="199" y="547.5" width="97.5" height="55" as="geometry" />
        </mxCell>
        <mxCell id="_d9M04DH2eVFDw5MNcZJ-41" value="" style="endArrow=none;html=1;" edge="1" parent="1">
          <mxGeometry width="50" height="50" relative="1" as="geometry">
            <mxPoint x="660" y="20" as="sourcePoint" />
            <mxPoint x="430" y="20" as="targetPoint" />
          </mxGeometry>
        </mxCell>
        <mxCell id="_d9M04DH2eVFDw5MNcZJ-42" value="" style="endArrow=classic;html=1;entryX=0.5;entryY=0;entryDx=0;entryDy=0;" edge="1" parent="1" target="9x1H_0t3VZo4HXwmnzUf-6">
          <mxGeometry width="50" height="50" relative="1" as="geometry">
            <mxPoint x="660" y="20" as="sourcePoint" />
            <mxPoint x="550" y="120" as="targetPoint" />
          </mxGeometry>
        </mxCell>
        <mxCell id="_d9M04DH2eVFDw5MNcZJ-44" value="" style="outlineConnect=0;html=1;whiteSpace=wrap;fontSize=12;fontStyle=0;verticalAlign=top;align=center;dashed=1;spacingTop=3;strokeWidth=4;fillColor=none;strokeColor=#FF0000;" vertex="1" parent="1">
          <mxGeometry x="175" y="535" width="150" height="80" as="geometry" />
        </mxCell>
        <mxCell id="_d9M04DH2eVFDw5MNcZJ-45" value="&lt;font color=&quot;#ff0000&quot; size=&quot;1&quot;&gt;&lt;b style=&quot;font-size: 14px&quot;&gt;MINIMIZE&lt;/b&gt;&lt;/font&gt;" style="text;html=1;strokeColor=none;fillColor=none;align=center;verticalAlign=middle;whiteSpace=wrap;rounded=0;dashed=1;" vertex="1" parent="1">
          <mxGeometry x="199" y="625" width="95" height="20" as="geometry" />
        </mxCell>
        <mxCell id="_d9M04DH2eVFDw5MNcZJ-47" value="&lt;span style=&quot;font-size: 14px&quot;&gt;Web Accessible&lt;br&gt;Files&lt;br&gt;&lt;/span&gt;" style="html=1;" vertex="1" parent="1">
          <mxGeometry x="617.5" y="600" width="132.5" height="57.5" as="geometry" />
        </mxCell>
      </root>
    </mxGraphModel>
  </diagram>
</mxfile>
